HIERARCHY
ROOT root
{
	OFFSET 0.000000 0.000000 0.000000
	CHANNELS 6 Xposition Yposition Zposition Zrotation Yrotation Xrotation
	JOINT lhip
	{
		OFFSET 0.058581 -0.082280 -0.017664
		CHANNELS 3 Zrotation Yrotation Xrotation
		JOINT lknee
		{
			OFFSET 0.043451 -0.386469 0.008037
			CHANNELS 3 Zrotation Yrotation Xrotation
			JOINT lankle
			{
				OFFSET -0.014790 -0.426874 -0.037428
				CHANNELS 3 Zrotation Yrotation Xrotation
				JOINT ltoe
				{
					OFFSET 0.041054 -0.060286 0.122042
					CHANNELS 3 Zrotation Yrotation Xrotation
					End Site
					{
						OFFSET 0.000000 0.000000 0.000000
					}
				}
			}
		}
	}
	JOINT rhip
	{
		OFFSET -0.060310 -0.090513 -0.013543
		CHANNELS 3 Zrotation Yrotation Xrotation
		JOINT rknee
		{
			OFFSET -0.043257 -0.383688 -0.004843
			CHANNELS 3 Zrotation Yrotation Xrotation
			JOINT rankle
			{
				OFFSET 0.019056 -0.420046 -0.034562
				CHANNELS 3 Zrotation Yrotation Xrotation
				JOINT rtoe
				{
					OFFSET -0.034840 -0.062106 0.130323
					CHANNELS 3 Zrotation Yrotation Xrotation
					End Site
					{
						OFFSET 0.000000 0.000000 0.000000
					}
				}
			}
		}
	}
	JOINT lowerback
	{
		OFFSET 0.004439 0.124404 -0.038385
		CHANNELS 3 Zrotation Yrotation Xrotation
		JOINT upperback
		{
			OFFSET 0.004488 0.137956 0.026820
			CHANNELS 3 Zrotation Yrotation Xrotation
			JOINT chest
			{
				OFFSET -0.002265 0.056032 0.002855
				CHANNELS 3 Zrotation Yrotation Xrotation
				JOINT lowerneck
				{
					OFFSET -0.013390 0.211636 -0.033468
					CHANNELS 3 Zrotation Yrotation Xrotation
					JOINT upperneck
					{
						OFFSET 0.010113 0.088937 0.050410
						CHANNELS 3 Zrotation Yrotation Xrotation
						End Site
						{
							OFFSET 0.000000 0.000000 0.000000
						}
					}
				}
				JOINT lclavicle
				{
					OFFSET 0.071702 0.114000 -0.018898
					CHANNELS 3 Zrotation Yrotation Xrotation
					JOINT lshoulder
					{
						OFFSET 0.122921 0.045205 -0.019046
						CHANNELS 3 Zrotation Yrotation Xrotation
						JOINT lelbow
						{
							OFFSET 0.255332 -0.015649 -0.022946
							CHANNELS 3 Zrotation Yrotation Xrotation
							JOINT lwrist
							{
								OFFSET 0.265709 0.012698 -0.007375
								CHANNELS 3 Zrotation Yrotation Xrotation
								End Site
								{
									OFFSET 0.000000 0.000000 0.000000
								}
							}
						}
					}
				}
				JOINT rclavicle
				{
					OFFSET -0.082954 0.112472 -0.023707
					CHANNELS 3 Zrotation Yrotation Xrotation
					JOINT rshoulder
					{
						OFFSET -0.113228 0.046853 -0.008472
						CHANNELS 3 Zrotation Yrotation Xrotation
						JOINT relbow
						{
							OFFSET -0.260127 -0.014369 -0.031269
							CHANNELS 3 Zrotation Yrotation Xrotation
							JOINT rwrist
							{
								OFFSET -0.269108 0.006794 -0.006027
								CHANNELS 3 Zrotation Yrotation Xrotation
								End Site
								{
									OFFSET 0.000000 0.000000 0.000000
								}
							}
						}
					}
				}
			}
		}
	}
}
MOTION
Frames: 14
Frame Time: 0.033333
-0.340267 0.300629 0.982820 97.044447 2.299010 83.966348 0.011828 -2.417198 2.273841 -2.958483 -9.139361 12.213842 6.380924 6.879831 -15.977718 0.000000 -0.000000 0.000000 -3.555968 -2.320017 -23.879565 -3.278588 -11.760613 49.810641 3.417705 -10.567075 -8.822892 0.000000 -0.000000 0.000000 1.230558 -0.752766 11.055224 -2.350556 2.300564 -3.276050 -2.895038 0.292433 1.813835 -4.244555 22.062139 -0.267972 -7.792792 23.681647 14.830261 -21.283166 -4.605325 -6.195023 -50.657209 -25.976360 7.734117 44.559745 -53.554550 -41.686558 17.958062 -13.820073 -40.060052 16.136667 3.744774 -4.741189 41.534485 22.834734 13.472317 -90.932448 60.364281 -77.568297 -7.810491 14.770223 -22.789241 
-0.311507 0.303644 0.983104 98.051709 2.557939 84.283926 0.597405 -1.025407 4.434677 -2.993569 -10.069623 10.382204 5.502175 6.515165 -16.866463 0.000000 -0.000000 0.000000 -3.251128 -3.086523 -25.051784 -2.956772 -12.224322 40.736246 3.964712 -11.097475 -8.617976 0.000000 -0.000000 0.000000 1.607004 -1.567767 11.298190 -2.631199 1.638652 -4.163465 -2.289743 -0.259614 2.062748 -5.382005 23.002507 -0.926169 -7.159390 25.542295 13.889139 -18.475442 -5.890557 -7.930580 -48.274025 -29.707937 4.938987 40.680388 -46.380441 -44.111280 19.984295 -11.695615 -41.885371 13.471718 2.222798 -6.305926 35.290605 22.238239 8.430292 -87.114568 55.332701 -77.015530 -9.523390 13.971248 -24.296220 
-0.283208 0.305630 0.981692 98.992650 2.465715 84.903666 0.942038 -0.356480 6.067130 -2.992405 -12.186999 9.565196 4.960007 6.305702 -17.082209 0.000000 -0.000000 0.000000 -2.920732 -3.620803 -26.000423 -1.610395 -10.900638 30.200832 4.711971 -12.149239 -5.893152 0.000000 -0.000000 0.000000 1.731580 -1.757899 10.863378 -2.864998 0.753641 -4.390492 -2.086755 -0.981375 2.222700 -6.350867 24.116367 -1.332153 -6.562562 27.336272 12.316615 -15.533372 -7.736018 -9.303766 -43.049440 -33.277830 0.931114 34.776697 -37.633996 -42.897465 20.335128 -11.660399 -39.730872 10.878931 0.988102 -7.455399 29.252495 21.241893 3.594372 -80.986828 49.707377 -74.367937 -9.727575 12.696383 -25.995209 
-0.247698 0.307214 0.979501 99.648184 2.359933 86.361054 1.545942 0.899008 6.992144 -3.294406 -12.346363 8.964495 4.210940 6.271434 -17.266400 0.000000 -0.000000 0.000000 -2.109853 -3.722775 -27.051643 -0.671758 -8.458669 17.081604 7.271141 -11.234655 -0.066633 0.000000 -0.000000 0.000000 1.955579 -2.303149 10.607572 -3.329205 -0.222751 -5.110046 -1.640130 -1.543357 1.488699 -7.678482 25.926283 -1.346710 -6.486723 30.587407 9.263654 -12.756934 -9.132404 -10.235598 -37.738609 -35.116416 -4.342599 32.006058 -28.924981 -45.252250 17.588568 -11.045792 -34.822692 7.336023 -0.065865 -8.431425 22.727298 19.174823 -1.886396 -72.653882 42.999528 -71.770218 -11.186005 10.883365 -28.965070 
-0.225057 0.307808 0.978370 100.195535 2.412964 86.803739 1.989756 1.807157 7.915262 -3.080963 -13.521298 8.778699 3.122476 6.024880 -17.339491 0.000000 -0.000000 0.000000 -1.545296 -3.677780 -26.812738 -0.760126 -7.532755 10.697880 9.336816 -9.884940 -0.987448 0.000000 -0.000000 0.000000 2.414931 -2.909680 10.825895 -3.822381 -0.936911 -5.405543 -1.520540 -1.956031 1.274963 -8.817881 27.271952 -1.526496 -6.891274 32.500431 6.626320 -10.589819 -9.446110 -10.654503 -36.111075 -35.301519 -6.530089 31.927567 -24.947913 -46.669705 15.705700 -9.609195 -33.714854 4.951505 -0.882572 -8.593540 20.116188 17.678765 -4.897449 -67.194845 39.935924 -69.247093 -10.359082 9.432845 -31.816958 
-0.191922 0.307590 0.977124 100.980246 2.323399 87.125742 2.921291 2.243832 9.132063 -3.530266 -15.383810 9.436848 1.306668 5.659975 -17.420077 0.000000 -0.000000 0.000000 -0.968680 -3.550305 -26.621444 -0.727804 -6.079629 6.581280 10.105480 -10.039929 -2.332225 0.000000 -0.000000 0.000000 2.661430 -3.676596 10.797876 -4.235835 -1.711686 -5.276940 -1.360139 -2.580275 0.981810 -10.203447 28.602813 -1.492851 -7.821282 34.747064 2.995319 -8.490834 -9.466007 -10.995943 -34.731813 -34.846719 -8.478470 33.035915 -20.740357 -46.791796 12.023553 -7.110160 -33.499889 1.970285 -2.089921 -8.986933 17.308806 15.636696 -8.453776 -60.171527 35.435358 -64.043037 -7.120106 8.590057 -34.365886 
-0.155879 0.306361 0.976720 101.095299 2.042808 87.035495 3.616168 2.705539 10.502723 -3.740666 -16.411215 11.194343 -1.777081 4.403484 -17.814321 0.000000 -0.000000 0.000000 -0.799740 -2.482878 -27.162463 -0.915103 -6.383027 9.616778 11.201401 -9.499049 -2.507000 0.000000 -0.000000 0.000000 2.581614 -4.124522 10.857548 -4.811702 -1.843853 -5.893155 -1.452965 -2.385693 1.769009 -10.486199 30.383012 -1.284237 -8.632419 34.950788 0.452633 -6.952028 -9.450423 -11.039843 -34.686185 -35.301850 -7.816197 35.750765 -16.741036 -48.579124 8.342902 -5.396901 -32.541449 0.249029 -3.313544 -10.130501 14.939576 12.286100 -10.757140 -53.411958 32.659168 -59.601149 -9.274780 7.287175 -35.639827 
-0.117395 0.303950 0.977447 101.391354 1.882102 87.051532 4.315907 2.688959 11.394639 -4.352690 -18.192258 13.836298 -4.000549 4.262782 -16.591442 0.000000 -0.000000 0.000000 -0.519941 -1.218724 -26.879494 -0.899821 -6.343196 13.770894 12.683407 -9.495748 -4.840203 0.000000 -0.000000 0.000000 2.616951 -5.246072 10.511420 -5.266164 -1.666785 -6.158829 -1.914440 -2.345736 1.965545 -10.275603 31.796408 -0.741781 -9.529869 34.851241 -1.668086 -6.724825 -8.083587 -11.014880 -34.554868 -35.395195 -8.196128 37.000554 -16.624573 -47.487063 7.440020 -4.714887 -35.263857 -0.771581 -4.724468 -10.227022 14.000079 10.736876 -12.436182 -49.273050 28.846806 -56.086638 -10.980549 6.200036 -36.599661 
-0.077611 0.299903 0.979475 101.153323 2.114308 87.332496 5.040623 2.262051 11.483221 -4.987712 -19.261610 17.458989 -5.895766 4.280092 -13.965377 0.000000 -0.000000 0.000000 0.752346 0.124642 -26.185428 -0.763185 -3.260306 15.428436 8.598413 -9.521445 2.922103 0.000000 -0.000000 0.000000 3.100417 -5.822041 9.419722 -5.721946 -1.463211 -5.990158 -2.313979 -2.480850 1.978144 -11.005814 30.551658 -0.613413 -9.440587 37.721019 -3.471941 -7.556975 -6.643430 -11.934510 -34.977243 -34.508190 -7.831443 38.849817 -17.690814 -46.498647 6.063451 -4.269176 -37.593728 -1.413548 -5.969277 -10.449497 13.995949 9.407241 -12.774540 -47.433647 25.800284 -54.794427 -9.758158 5.946956 -38.261134 
-0.026576 0.292741 0.983687 100.594517 2.792426 87.350948 6.477237 2.412072 10.136365 -6.365478 -19.256550 24.797246 -9.122651 3.093895 -7.907184 0.000000 -0.000000 0.000000 2.568251 1.143552 -25.509842 0.108065 -0.954509 18.458110 3.330478 -11.679813 4.865497 0.000000 -0.000000 0.000000 3.254230 -5.998782 8.173192 -5.570973 -0.787272 -5.700349 -2.629511 -2.235661 2.461337 -10.843593 30.998996 -0.244750 -9.558214 38.512975 -4.507834 -8.349107 -4.753336 -11.705484 -36.082266 -34.459897 -7.795823 39.777643 -19.289312 -43.700504 4.590936 -4.705157 -40.540317 -1.085901 -8.466662 -10.449410 14.300875 8.440906 -14.093949 -47.533058 24.147324 -53.601308 -9.077036 5.824894 -40.084242 
0.012283 0.286782 0.988993 100.119093 3.680582 87.007778 7.729142 2.246252 7.065561 -7.816379 -17.801595 33.412233 -12.424876 2.680882 0.329932 0.000000 -0.000000 0.000000 4.492696 2.011243 -23.796124 -0.283405 -1.930868 20.978013 1.379924 -10.390481 1.390618 0.000000 -0.000000 0.000000 3.188726 -5.975387 7.966278 -4.803073 -0.893031 -4.869109 -2.617051 -2.041993 1.603804 -10.024692 32.491212 0.968874 -10.411704 38.415255 -5.639228 -8.652012 -3.619400 -11.529724 -37.806512 -33.241327 -7.374041 41.130564 -19.976388 -41.805257 2.171919 -5.274216 -43.242605 -0.735313 -9.519091 -10.043279 14.693687 7.858005 -15.514257 -48.308050 24.115938 -52.661548 -6.736165 7.079626 -43.693896 
0.048731 0.282966 0.992308 99.907596 4.191023 86.775306 8.172829 1.438191 2.740989 -9.390673 -15.821193 42.865774 -12.738208 1.951497 7.284100 0.000000 -0.000000 0.000000 5.857490 1.782941 -21.836011 0.265149 -1.542784 22.168604 -0.697045 -10.820516 -1.055830 0.000000 -0.000000 0.000000 3.098910 -5.410150 7.288568 -4.162806 -1.514035 -3.398708 -2.588642 -2.260899 1.004433 -10.601673 32.592497 1.074463 -10.295588 39.384353 -6.504290 -9.066684 -3.218366 -11.186996 -38.600039 -31.909069 -7.531687 42.005470 -20.873700 -41.613352 1.668452 -5.216390 -45.654309 -0.897171 -9.632646 -9.682345 15.296521 7.651164 -16.085922 -49.736091 23.565575 -54.243604 -7.975373 6.182074 -43.449948 
0.083315 0.280891 0.994748 99.549786 4.535016 85.797939 8.183361 0.067651 -0.502874 -10.348377 -13.425172 50.569969 -10.293757 3.086225 10.815770 0.000000 -0.000000 0.000000 6.995002 1.611408 -18.635718 1.078202 0.034010 22.239414 -2.794874 -12.416055 -2.800092 0.000000 -0.000000 0.000000 3.312799 -4.588636 7.656432 -4.175049 -1.794940 -2.489535 -2.530927 -2.710975 0.785037 -11.674936 31.286753 0.173191 -9.715923 41.125677 -6.924370 -9.546321 -4.190668 -10.235134 -38.078213 -30.753671 -8.786485 42.621598 -21.543376 -42.519240 2.098624 -4.896762 -47.150099 -1.717536 -8.829102 -9.766229 16.303559 6.858162 -15.860712 -50.791618 22.938961 -56.134092 -8.292180 6.344464 -42.965525 
0.116416 0.280174 0.997203 98.374021 4.432374 84.587156 8.200087 0.118926 -3.322797 -9.946618 -10.565815 56.037670 -8.841981 3.344606 6.662274 0.000000 -0.000000 0.000000 8.019194 1.268616 -15.123038 0.758376 1.134359 22.098765 -3.547426 -12.273101 -4.826712 0.000000 -0.000000 0.000000 3.118099 -3.691396 8.701052 -4.431419 -1.715605 -2.164960 -2.482092 -2.411944 0.679580 -11.551731 30.585636 0.005001 -8.965607 42.013202 -6.572390 -9.905927 -4.364684 -10.375330 -38.649929 -29.996091 -8.733714 42.624988 -23.009591 -43.061190 2.818635 -5.275352 -47.855843 -1.980723 -8.690088 -9.715327 16.677042 6.347407 -15.947395 -51.423417 23.893791 -57.596472 -8.277233 6.947338 -42.684163 
